<svg width="20" height="20" viewBox="0 0 20 20" fill="none" xmlns="http://www.w3.org/2000/svg">
<path fill-rule="evenodd" clip-rule="evenodd" d="M1 0C0.447715 0 0 0.447715 0 1V19C0 19.5523 0.447715 20 1 20H19C19.5523 20 20 19.5523 20 19V1C20 0.447715 19.5523 0 19 0H1ZM4 7C3.44772 7 3 7.44772 3 8C3 8.55228 3.44772 9 4 9H16C16.5523 9 17 8.55228 17 8C17 7.44772 16.5523 7 16 7H4ZM7 11C6.44772 11 6 11.4477 6 12V13C6 13.5523 6.44772 14 7 14H13C13.5523 14 14 13.5523 14 13V12C14 11.4477 13.5523 11 13 11H7Z" fill="#D7D7D7"/>
</svg>
