<svg width="20" height="20" viewBox="0 0 20 20" fill="none" xmlns="http://www.w3.org/2000/svg">
<path fill-rule="evenodd" clip-rule="evenodd" d="M0 1C0 0.447715 0.447715 0 1 0H19C19.5523 0 20 0.447715 20 1V19C20 19.5523 19.5523 20 19 20H1C0.447715 20 0 19.5523 0 19V1ZM3.19809 18H3C2.86441 18 2.73512 17.973 2.61721 17.9241C2.53588 17.8904 2.45997 17.8462 2.39114 17.7933C2.32192 17.7401 2.25986 17.6781 2.20666 17.6089C2.15375 17.54 2.10961 17.4641 2.07588 17.3828C2.02699 17.2649 2 17.1356 2 17V16.8019V13.5V13V12.5H3V13.5V17L2.99961 16.9997L2.99972 17L2.9998 17.0002L3 17.0003L3.00027 17.0004L3 17H6.5H7.5V18H7H6.5H3.19809ZM2 7.5H3V6.5V3H6.5H7.5V2H7H6.5H3.19809H3C2.86441 2 2.73512 2.02699 2.61721 2.07588C2.53588 2.10961 2.45997 2.15375 2.39114 2.20666C2.32192 2.25986 2.25986 2.32192 2.20666 2.39114C2.15375 2.45997 2.10961 2.53588 2.07588 2.61721C2.02699 2.73512 2 2.86441 2 3V3.19809V6.5V7V7.5ZM3 3L2.99961 3.00027L2.99972 3L2.9998 2.9998L3 2.99972L3.00027 2.99961L3 3ZM12.5 2H13H13.5H16.8019H17C17.1356 2 17.2649 2.02699 17.3828 2.07588C17.4641 2.10961 17.54 2.15375 17.6089 2.20666C17.6781 2.25986 17.7401 2.32192 17.7933 2.39114C17.8462 2.45997 17.8904 2.53588 17.9241 2.61721C17.973 2.73512 18 2.86441 18 3V3.19809V6.5V7V7.5H17V6.5V3L17.0004 3.00027L17.0003 3L17.0002 2.9998L17 2.99972L16.9997 2.99961L17 3H13.5H12.5V2ZM18 12.5V13V13.5V16.8019V17C18 17.1356 17.973 17.2649 17.9241 17.3828C17.8904 17.4641 17.8462 17.54 17.7933 17.6089C17.7401 17.6781 17.6781 17.7401 17.6089 17.7933C17.54 17.8462 17.4641 17.8904 17.3828 17.9241C17.2649 17.973 17.1356 18 17 18H16.8019H13.5H13H12.5V17H13.5H17L16.9997 17.0004L17 17.0003L17.0002 17.0002L17.0003 17L17.0004 16.9997L17 17V13.5V12.5H18ZM5 13L7.69231 9.25L9.61539 10.375L11.9231 7L15 13H5Z" fill="#D7D7D7"/>
</svg>
